<mxfile host="Electron" modified="2023-11-14T16:26:43.757Z" agent="Mozilla/5.0 (Windows NT 10.0; Win64; x64) AppleWebKit/537.36 (KHTML, like Gecko) draw.io/22.0.3 Chrome/114.0.5735.289 Electron/25.8.4 Safari/537.36" etag="tCko-7r9xwWo81G65tb7" version="22.0.3" type="device">
  <diagram id="C5RBs43oDa-KdzZeNtuy" name="Page-1">
    <mxGraphModel dx="1233" dy="794" grid="1" gridSize="10" guides="1" tooltips="1" connect="1" arrows="1" fold="1" page="1" pageScale="1" pageWidth="827" pageHeight="1169" math="0" shadow="0">
      <root>
        <mxCell id="WIyWlLk6GJQsqaUBKTNV-0" />
        <mxCell id="WIyWlLk6GJQsqaUBKTNV-1" parent="WIyWlLk6GJQsqaUBKTNV-0" />
        <mxCell id="nFpxSgMkPvbCCfvxQ63Z-2" value="" style="edgeStyle=orthogonalEdgeStyle;rounded=0;orthogonalLoop=1;jettySize=auto;html=1;" edge="1" parent="WIyWlLk6GJQsqaUBKTNV-1" source="nFpxSgMkPvbCCfvxQ63Z-0" target="nFpxSgMkPvbCCfvxQ63Z-1">
          <mxGeometry relative="1" as="geometry" />
        </mxCell>
        <mxCell id="nFpxSgMkPvbCCfvxQ63Z-0" value="start" style="ellipse;whiteSpace=wrap;html=1;" vertex="1" parent="WIyWlLk6GJQsqaUBKTNV-1">
          <mxGeometry x="360" y="130" width="120" height="80" as="geometry" />
        </mxCell>
        <mxCell id="nFpxSgMkPvbCCfvxQ63Z-4" value="" style="edgeStyle=orthogonalEdgeStyle;rounded=0;orthogonalLoop=1;jettySize=auto;html=1;" edge="1" parent="WIyWlLk6GJQsqaUBKTNV-1" source="nFpxSgMkPvbCCfvxQ63Z-1" target="nFpxSgMkPvbCCfvxQ63Z-3">
          <mxGeometry relative="1" as="geometry" />
        </mxCell>
        <mxCell id="nFpxSgMkPvbCCfvxQ63Z-1" value="money, rate,time" style="shape=parallelogram;perimeter=parallelogramPerimeter;whiteSpace=wrap;html=1;fixedSize=1;" vertex="1" parent="WIyWlLk6GJQsqaUBKTNV-1">
          <mxGeometry x="360" y="300" width="120" height="60" as="geometry" />
        </mxCell>
        <mxCell id="nFpxSgMkPvbCCfvxQ63Z-6" style="edgeStyle=orthogonalEdgeStyle;rounded=0;orthogonalLoop=1;jettySize=auto;html=1;entryX=0.5;entryY=0;entryDx=0;entryDy=0;" edge="1" parent="WIyWlLk6GJQsqaUBKTNV-1" source="nFpxSgMkPvbCCfvxQ63Z-3" target="nFpxSgMkPvbCCfvxQ63Z-5">
          <mxGeometry relative="1" as="geometry" />
        </mxCell>
        <mxCell id="nFpxSgMkPvbCCfvxQ63Z-3" value="moneyReceive=money&lt;br&gt;i=0" style="shape=parallelogram;perimeter=parallelogramPerimeter;whiteSpace=wrap;html=1;fixedSize=1;" vertex="1" parent="WIyWlLk6GJQsqaUBKTNV-1">
          <mxGeometry x="360" y="440" width="180" height="80" as="geometry" />
        </mxCell>
        <mxCell id="nFpxSgMkPvbCCfvxQ63Z-8" style="edgeStyle=orthogonalEdgeStyle;rounded=0;orthogonalLoop=1;jettySize=auto;html=1;entryX=0.5;entryY=0;entryDx=0;entryDy=0;" edge="1" parent="WIyWlLk6GJQsqaUBKTNV-1" source="nFpxSgMkPvbCCfvxQ63Z-5" target="nFpxSgMkPvbCCfvxQ63Z-7">
          <mxGeometry relative="1" as="geometry" />
        </mxCell>
        <mxCell id="nFpxSgMkPvbCCfvxQ63Z-10" value="true" style="edgeLabel;html=1;align=center;verticalAlign=middle;resizable=0;points=[];" vertex="1" connectable="0" parent="nFpxSgMkPvbCCfvxQ63Z-8">
          <mxGeometry x="0.2842" y="-5" relative="1" as="geometry">
            <mxPoint as="offset" />
          </mxGeometry>
        </mxCell>
        <mxCell id="nFpxSgMkPvbCCfvxQ63Z-12" value="" style="edgeStyle=orthogonalEdgeStyle;rounded=0;orthogonalLoop=1;jettySize=auto;html=1;" edge="1" parent="WIyWlLk6GJQsqaUBKTNV-1" source="nFpxSgMkPvbCCfvxQ63Z-5" target="nFpxSgMkPvbCCfvxQ63Z-11">
          <mxGeometry relative="1" as="geometry" />
        </mxCell>
        <mxCell id="nFpxSgMkPvbCCfvxQ63Z-5" value="i&amp;lt;time" style="rhombus;whiteSpace=wrap;html=1;" vertex="1" parent="WIyWlLk6GJQsqaUBKTNV-1">
          <mxGeometry x="400" y="630" width="80" height="80" as="geometry" />
        </mxCell>
        <mxCell id="nFpxSgMkPvbCCfvxQ63Z-7" value="&#xa;&lt;div style=&quot;color: rgb(212, 212, 212); background-color: rgb(30, 30, 30); font-family: Consolas, &amp;quot;Courier New&amp;quot;, monospace; font-weight: normal; font-size: 14px; line-height: 19px;&quot;&gt;&lt;div&gt;&lt;span style=&quot;color: #d4d4d4;&quot;&gt;&amp;nbsp;&lt;/span&gt;&lt;span style=&quot;color: #c8c8c8;&quot;&gt;moneyReceive&lt;/span&gt;&lt;span style=&quot;color: #d4d4d4;&quot;&gt;+=&lt;/span&gt;&lt;span style=&quot;color: #c8c8c8;&quot;&gt;moneyReceive&lt;/span&gt;&lt;span style=&quot;color: #d4d4d4;&quot;&gt;*&lt;/span&gt;&lt;span style=&quot;color: #c8c8c8;&quot;&gt;rate&lt;/span&gt;&lt;span style=&quot;color: #d4d4d4;&quot;&gt;;&lt;/span&gt;&lt;/div&gt;&lt;/div&gt;&#xa;&#xa;" style="rounded=1;whiteSpace=wrap;html=1;" vertex="1" parent="WIyWlLk6GJQsqaUBKTNV-1">
          <mxGeometry x="310" y="790" width="290" height="100" as="geometry" />
        </mxCell>
        <mxCell id="nFpxSgMkPvbCCfvxQ63Z-14" value="" style="edgeStyle=orthogonalEdgeStyle;rounded=0;orthogonalLoop=1;jettySize=auto;html=1;" edge="1" parent="WIyWlLk6GJQsqaUBKTNV-1" source="nFpxSgMkPvbCCfvxQ63Z-11" target="nFpxSgMkPvbCCfvxQ63Z-13">
          <mxGeometry relative="1" as="geometry" />
        </mxCell>
        <mxCell id="nFpxSgMkPvbCCfvxQ63Z-11" value="moneyReceive" style="whiteSpace=wrap;html=1;" vertex="1" parent="WIyWlLk6GJQsqaUBKTNV-1">
          <mxGeometry x="540" y="640" width="120" height="60" as="geometry" />
        </mxCell>
        <mxCell id="nFpxSgMkPvbCCfvxQ63Z-13" value="end" style="ellipse;whiteSpace=wrap;html=1;" vertex="1" parent="WIyWlLk6GJQsqaUBKTNV-1">
          <mxGeometry x="760" y="630" width="80" height="80" as="geometry" />
        </mxCell>
      </root>
    </mxGraphModel>
  </diagram>
</mxfile>
